<svg xmlns="http://www.w3.org/2000/svg" viewBox="0 0 56.19 12.5"><defs><style>.cls-1{fill:#fff;}</style></defs><g id="Layer_2" data-name="Layer 2"><g id="Layer_1-2" data-name="Layer 1"><path class="cls-1" d="M20.11,7.87a2.31,2.31,0,0,1-1,1,3.61,3.61,0,0,1-1.71.36H16V12.4H14.32V4H17.4a3.67,3.67,0,0,1,1.66.34,2.32,2.32,0,0,1,1,.92,2.68,2.68,0,0,1,.34,1.33A2.62,2.62,0,0,1,20.11,7.87Zm-1.75-.36a1.17,1.17,0,0,0,.34-.9c0-.81-.46-1.22-1.37-1.22H16V7.82h1.33A1.44,1.44,0,0,0,18.36,7.51Z"/><path class="cls-1" d="M21.47,7.26A2.87,2.87,0,0,1,24.1,5.64,2.67,2.67,0,0,1,26.3,6.7v-1H28V12.4H26.3v-1a2.55,2.55,0,0,1-.9.78,3,3,0,0,1-2.84-.13,2.94,2.94,0,0,1-1.09-1.22,3.85,3.85,0,0,1-.41-1.8A3.84,3.84,0,0,1,21.47,7.26ZM26.06,8a1.75,1.75,0,0,0-.65-.67,1.79,1.79,0,0,0-1.74,0A1.72,1.72,0,0,0,23,8a2,2,0,0,0-.25,1,2.09,2.09,0,0,0,.25,1,1.78,1.78,0,0,0,.64.69,1.67,1.67,0,0,0,.86.24,1.71,1.71,0,0,0,.88-.24,1.68,1.68,0,0,0,.65-.67,2.14,2.14,0,0,0,.24-1A2.14,2.14,0,0,0,26.06,8Z"/><path class="cls-1" d="M31.79,7.13v3.21a.67.67,0,0,0,.16.49.8.8,0,0,0,.55.15h.78V12.4H32.22a1.85,1.85,0,0,1-2.12-2.07V7.13h-.79V5.75h.79V4.1h1.69V5.75h1.49V7.13Z"/><path class="cls-1" d="M34.81,4.67a.9.9,0,0,1-.29-.7.91.91,0,0,1,.29-.7A1,1,0,0,1,35.55,3a1,1,0,0,1,.74.28,1,1,0,0,1,.29.7.93.93,0,0,1-.29.7,1,1,0,0,1-.74.29A1,1,0,0,1,34.81,4.67Zm1.57,1.08V12.4H34.7V5.75Z"/><path class="cls-1" d="M40.19,7.13v3.21a.67.67,0,0,0,.16.49.8.8,0,0,0,.55.15h.78V12.4H40.62a1.85,1.85,0,0,1-2.12-2.07V7.13h-.79V5.75h.79V4.1h1.69V5.75h1.49V7.13Z"/><path class="cls-1" d="M43.07,7.26A2.87,2.87,0,0,1,45.7,5.64,2.67,2.67,0,0,1,47.9,6.7v-1h1.69V12.4H47.9v-1a2.55,2.55,0,0,1-.9.78,3,3,0,0,1-2.84-.13,2.94,2.94,0,0,1-1.09-1.22,3.85,3.85,0,0,1-.41-1.8A3.84,3.84,0,0,1,43.07,7.26ZM47.66,8A1.75,1.75,0,0,0,47,7.35a1.79,1.79,0,0,0-1.74,0,1.72,1.72,0,0,0-.64.67,2,2,0,0,0-.25,1,2.09,2.09,0,0,0,.25,1,1.78,1.78,0,0,0,.64.69,1.67,1.67,0,0,0,.86.24,1.71,1.71,0,0,0,.88-.24,1.68,1.68,0,0,0,.65-.67,2.14,2.14,0,0,0,.24-1A2.14,2.14,0,0,0,47.66,8Z"/><path class="cls-1" d="M52.11,12.21a2.6,2.6,0,0,1-1-.8,2,2,0,0,1-.41-1.11h1.69a.92.92,0,0,0,.38.63,1.29,1.29,0,0,0,.82.25,1.26,1.26,0,0,0,.75-.19.58.58,0,0,0,.27-.49.52.52,0,0,0-.33-.49,7.38,7.38,0,0,0-1-.35A8.69,8.69,0,0,1,52,9.29a2.15,2.15,0,0,1-.81-.59,1.57,1.57,0,0,1-.35-1.07,1.75,1.75,0,0,1,.32-1,2.22,2.22,0,0,1,.91-.72,3.57,3.57,0,0,1,1.4-.26,2.9,2.9,0,0,1,1.9.59,2.23,2.23,0,0,1,.78,1.61H54.52a.82.82,0,0,0-.33-.63A1.22,1.22,0,0,0,53.4,7a1.27,1.27,0,0,0-.7.17.54.54,0,0,0-.24.47.56.56,0,0,0,.33.51,5.73,5.73,0,0,0,1.05.35A9.94,9.94,0,0,1,55,8.84a2,2,0,0,1,.81.6,1.63,1.63,0,0,1,.36,1.06,1.77,1.77,0,0,1-.32,1,2.14,2.14,0,0,1-.91.72,3.52,3.52,0,0,1-1.39.25A3.43,3.43,0,0,1,52.11,12.21Z"/><path class="cls-1" d="M7,12.42a4.5,4.5,0,1,1,4.49-4.5A4.51,4.51,0,0,1,7,12.42ZM7,4.93a3,3,0,1,0,3,3A3,3,0,0,0,7,4.93Z"/><circle class="cls-1" cx="1.3" cy="4.42" r="1.3"/><circle class="cls-1" cx="4.31" cy="1.87" r="1.3"/><circle class="cls-1" cx="8.07" cy="1.3" r="1.3"/></g></g></svg>